<svg width="177" height="49" viewBox="0 0 177 49" fill="none" xmlns="http://www.w3.org/2000/svg">
<path d="M14.7737 27.9621C14.5733 28.2351 14.3723 28.4924 14.1708 28.734C14.4491 29.7019 14.7902 30.6505 15.1919 31.5737C19.6307 41.8926 7.47983 44.5116 7.47983 44.5116C7.47983 44.5116 11.2233 48.9641 15.6957 48.9641C17.8035 48.9641 20.0707 47.9765 22.1885 45.0728C25.1259 41.0399 27.9239 39.4085 30.5623 39.4085C33.231 39.4085 35.7367 41.0786 38.0611 43.6217C39.7405 38.6198 39.4332 34.2297 34.6753 31.8855C34.42 32.2023 34.1715 32.536 33.9061 32.8882C31.7917 35.7919 29.5244 36.7795 27.4184 36.7812C22.946 36.7812 19.2058 32.3287 19.2058 32.3287C19.2058 32.3287 22.7646 31.5619 25.3258 29.221C22.4522 27.6807 21.5151 25.0078 21.3404 22.5591C19.2444 23.1591 17.0544 24.841 14.7804 27.9621" fill="url(#paint0_linear_2_15)"/>
<path d="M25.4013 14.0367C29.8888 15.4557 31.575 18.1841 31.5767 21.5699C31.5767 23.1035 31.2324 24.7719 30.648 26.5111C29.8168 25.5807 28.8908 24.7403 27.8852 24.0034C27.7794 26.2735 26.6962 27.9722 25.3274 29.2278C26.5209 29.8402 27.8157 30.2291 29.1482 30.3754C31.4356 30.672 33.2595 31.1911 34.6904 31.8922C37.349 28.5907 39.8883 27.2324 42.2967 27.2324C44.9653 27.2324 47.4711 28.9025 49.7955 31.4456C51.9788 24.9455 50.8031 19.4801 40.8725 18.1926C29.7646 16.7567 33.7214 4.93449 33.7214 4.93449C28.515 6.04845 24.8857 8.60502 25.4164 14.035" fill="url(#paint1_linear_2_15)"/>
<path d="M25.319 29.2211C22.7579 31.5619 19.1991 32.3287 19.1991 32.3287C19.1991 32.3287 22.9392 36.7778 27.4116 36.7812C29.516 36.7812 31.7782 35.7919 33.8994 32.8882C34.158 32.536 34.4133 32.2023 34.6686 31.8855C33.2444 31.1844 31.4205 30.6653 29.1264 30.3687C27.7939 30.2221 26.4992 29.8332 25.3056 29.2211" fill="#0F6B31"/>
<path d="M7.77878 14.4647C12.2176 24.7837 0.065033 27.4043 0.065033 27.4043C0.065033 27.4043 3.80854 31.8568 8.28262 31.8568C10.1905 31.8568 12.231 31.0462 14.1708 28.7374C13.8296 27.5881 13.6476 26.3973 13.63 25.1983C13.63 20.4542 17.1115 18.1521 21.987 17.1089C21.5414 18.5783 21.3112 20.1048 21.3035 21.6407C21.3035 21.9406 21.3119 22.2474 21.3337 22.5574C21.9237 22.3858 22.5349 22.2984 23.1492 22.2979C24.7883 22.2979 26.3653 22.9282 27.8769 24.0017C27.8769 23.8838 27.8853 23.7624 27.8853 23.6394C27.8853 22.394 27.5981 20.9834 26.9112 19.3908C26.0345 17.3499 25.5508 15.577 25.3997 14.035C24.1998 13.6682 22.9702 13.4076 21.725 13.2564C10.6171 11.8222 14.5722 0 14.5722 0C7.88123 1.42912 3.80854 5.23448 7.7771 14.4631" fill="url(#paint2_linear_2_15)"/>
<path d="M21.987 17.1106C17.1166 18.1521 13.6266 20.4559 13.63 25.2C13.6486 26.3989 13.8305 27.5896 14.1708 28.739C14.3723 28.498 14.5739 28.2419 14.7737 27.9672C17.0477 24.8461 19.2377 23.1641 21.3337 22.5642C21.3118 22.2541 21.3018 21.9474 21.3035 21.6474C21.3112 20.1116 21.5414 18.585 21.987 17.1157" fill="#3E1878"/>
<path d="M25.4013 14.0367C25.5508 15.5787 26.0345 17.3516 26.9128 19.3908C27.5997 20.9851 27.8886 22.3956 27.8869 23.6411C27.8869 23.7641 27.8869 23.8838 27.8785 24.0051C28.8874 24.7404 29.8163 25.5804 30.6496 26.5111C31.2341 24.7702 31.5784 23.1035 31.5784 21.5699C31.5784 18.1841 29.8905 15.4557 25.403 14.0367" fill="#936B1E"/>
<path d="M93.4738 25.0772C91.5038 26.2029 90.1787 27.686 89.779 29.0712C89.2752 30.6251 89.6346 32.2109 90.9009 33.2693C92.1672 34.3276 94.0918 34.6175 95.9628 34.1726C96.4249 34.0851 96.8734 33.936 97.2962 33.7294C97.9758 33.4355 98.6102 33.0462 99.1806 32.5733C99.3485 32.4317 99.5165 32.2834 99.6693 32.1317C100.341 33.3114 101.943 34.395 103.89 34.8669C104.494 35.0175 105.114 35.0961 105.737 35.1012H105.796C106.499 35.1114 107.197 34.9814 107.85 34.7186C106.642 34.3277 105.519 33.71 104.541 32.8985C102.953 31.6042 101.869 30.0201 101.466 28.5943C101.291 27.9818 101.184 27.3516 101.147 26.7152C101.147 26.1574 100.59 26.2417 100.531 26.7034C99.9935 31.0548 96.7454 31.8317 95.9964 31.9042L95.8519 31.9177C95.4705 31.9512 95.0863 31.9063 94.7227 31.7858C94.3592 31.6652 94.0239 31.4716 93.7375 31.2166C92.5316 30.0369 93.3462 27.7281 95.5479 26.2231C97.7497 24.7182 100.512 24.4553 101.718 25.6367C102.39 26.3023 102.437 27.2866 101.947 28.2893C102.872 27.9522 105.247 24.3441 100.892 23.67C100.344 23.6115 99.7925 23.5811 99.2411 23.5789C97.224 23.5561 95.2372 24.0732 93.4856 25.0772H93.4738ZM127.001 25.0772C125.029 26.2029 123.704 27.686 123.306 29.0712C122.802 30.6251 123.163 32.2109 124.43 33.2693C125.696 34.3276 127.621 34.6175 129.49 34.1726C129.952 34.0851 130.402 33.936 130.825 33.7294C131.504 33.4355 132.138 33.0462 132.708 32.5733C132.876 32.4317 133.044 32.2834 133.198 32.1317C133.87 33.3114 135.472 34.395 137.417 34.8669C138.021 35.0173 138.641 35.0959 139.264 35.1012H139.325C140.028 35.1112 140.726 34.9812 141.379 34.7186C140.17 34.3277 139.047 33.7101 138.068 32.8985C136.48 31.6042 135.396 30.0201 134.993 28.5943C134.818 27.9818 134.711 27.3516 134.674 26.7152C134.674 26.1574 134.118 26.2417 134.058 26.7034C133.522 31.0548 130.274 31.8317 129.523 31.9042L129.379 31.9177C128.998 31.951 128.613 31.906 128.25 31.7855C127.886 31.6649 127.551 31.4714 127.264 31.2166C126.06 30.0369 126.875 27.7281 129.075 26.2231C131.275 24.7182 134.039 24.4553 135.245 25.6367C135.927 26.3023 135.966 27.2866 135.474 28.2893C136.401 27.9522 138.775 24.3441 134.421 23.67C133.872 23.6116 133.321 23.5812 132.77 23.5789C130.753 23.5561 128.766 24.0732 127.014 25.0772H127.001ZM164.248 23.5604C162.222 23.6282 160.252 24.2373 158.539 25.3249C156.623 26.545 155.369 28.087 155.029 29.4909C154.598 31.0683 155.029 32.6356 156.348 33.6316C157.666 34.6276 159.594 34.8265 161.443 34.2956C161.902 34.1874 162.343 34.0173 162.756 33.79C163.421 33.4655 164.036 33.0479 164.584 32.5497C164.752 32.3997 164.905 32.2463 165.051 32.0862C165.927 33.603 167.966 34.9006 170.505 35.3708C170.673 35.4028 170.841 35.4298 171.018 35.4534H173.784C175.117 35.2562 176.249 34.7692 176.995 34.063V33.9805C175.443 34.363 173.411 34.1389 171.421 33.2406C169.629 32.43 168.23 31.2318 167.419 29.9645C167.112 29.4971 166.865 28.9932 166.683 28.4646C166.48 27.8635 166.344 27.2418 166.277 26.6107C166.246 26.0529 165.699 26.1642 165.66 26.6276C165.324 31.0009 162.12 31.9295 161.369 32.0373L161.225 32.0576C160.845 32.1088 160.46 32.082 160.091 31.9788C159.722 31.8757 159.378 31.6984 159.08 31.4576C157.821 30.3352 158.528 27.991 160.655 26.3832C162.783 24.7755 165.526 24.3845 166.792 25.5086C167.503 26.1406 167.588 27.1214 167.143 28.146C168.052 27.7584 170.257 24.0508 165.875 23.5823C165.563 23.5655 165.234 23.5537 164.893 23.5537C164.669 23.5537 164.445 23.5587 164.221 23.5688L164.248 23.5604ZM85.3637 27.0574C85.1722 27.2427 85.1051 26.3377 84.5643 25.4327C84.0235 24.5277 83.0175 23.6312 80.9501 23.8065C80.9501 23.8065 83.1334 25.0856 82.5204 27.5983C81.9074 30.1111 80.7418 32.9069 83.1132 34.4052C83.9681 33.4698 84.7171 31.8199 86.3663 29.1016C88.9225 24.8884 92.2831 23.4694 92.2831 23.4694L91.8934 23.611C91.9942 23.5604 92.095 23.5082 92.1991 23.461H92.1756C92.0076 23.4475 91.8531 23.4407 91.6953 23.4407C88.1684 23.4407 85.7298 26.7051 85.3637 27.0607V27.0574ZM110.623 27.0607C110.431 27.2461 110.364 26.3411 109.823 25.4361C109.283 24.5311 108.277 23.6346 106.209 23.8098C106.209 23.8098 108.392 25.0889 107.779 27.6017C107.166 30.1144 106.001 32.9103 108.372 34.4085C108.372 34.4085 109.66 31.1913 111.474 28.8235C113.288 26.4557 115.105 25.5221 116.177 26.3546C117.006 26.9967 116.776 28.6668 116.721 29.9459C116.649 31.5907 117.426 35.3641 122.352 35.2815C122.352 35.2815 120.673 32.5682 120.899 29.4993C121.178 25.8507 120.495 23.7205 117.43 23.461C117.262 23.4475 117.107 23.4407 116.949 23.4407C113.422 23.4407 110.984 26.7051 110.618 27.0607H110.623ZM143.804 31.4424C142.544 30.32 143.251 27.9758 145.379 26.3681C146.97 25.1682 148.906 24.6525 150.303 24.9322C149.779 26.6613 149.598 28.1224 149.632 29.3578C149.279 30.0414 148.776 30.6361 148.162 31.0975C147.548 31.5589 146.838 31.875 146.085 32.0222L145.942 32.0424C145.82 32.057 145.698 32.0644 145.576 32.0643C144.928 32.0717 144.298 31.8517 143.795 31.4424H143.804ZM151.701 21.3864C151.328 22.1616 151.02 22.893 150.757 23.5891L150.589 23.5671C150.039 23.5345 149.487 23.53 148.936 23.5537C146.921 23.6263 144.961 24.2353 143.258 25.3181C141.34 26.5383 140.087 28.0803 139.746 29.4842C139.316 31.0616 139.746 32.6289 141.065 33.6249C142.383 34.6209 144.311 34.8197 146.162 34.2889C146.62 34.1806 147.061 34.0105 147.473 33.7833C148.138 33.4597 148.754 33.042 149.301 32.5429C149.469 32.3929 149.623 32.2379 149.771 32.0778L150.05 31.7525C150.878 34.1591 152.676 35.177 153.377 35.4467H153.42C153.333 35.1298 152.173 30.7279 153.541 26.3344C155.313 20.6398 154.964 17.8962 153.084 15.3986C153.084 15.3986 153.382 17.881 151.699 21.3881L151.701 21.3864ZM68.47 15.4188C66.0286 16.323 63.7025 17.5143 61.5406 18.968C61.2198 19.1888 61.0368 19.3135 60.7412 19.5461C59.796 20.3236 59.0181 21.2858 58.4549 22.3742C57.8916 23.4626 57.5547 24.6546 57.4646 25.8777C57.4461 26.0883 57.4343 26.299 57.4326 26.5063V26.7136C57.4881 31.1104 61.0485 34.6091 66.1306 34.7338C67.1092 34.7347 68.086 34.6484 69.0495 34.4759C69.2174 34.4389 69.3853 34.4001 69.5667 34.3596H69.5802C69.9295 34.2832 70.271 34.1962 70.6046 34.0984C70.833 34.0361 71.0614 33.972 71.2882 33.9046C72.1675 33.6101 73.0123 33.2202 73.8074 32.7418C76.7447 31.0717 78.5955 28.7123 78.9532 27.2225C79.6099 24.5058 78.3637 23.5941 77.0588 23.375C75.2416 23.07 74.3633 23.3144 73.0079 23.8418C70.3443 24.8766 69.864 26.5703 69.7834 27.0085C70.4539 26.467 71.2211 26.0586 72.0439 25.8052C74.3515 25.0687 76.565 25.549 76.9866 26.8787C77.4081 28.2084 75.8781 29.8852 73.5706 30.6217C72.6833 30.9049 71.7462 30.9956 70.8213 30.888C70.6914 30.879 70.5638 30.8672 70.4384 30.8526L70.3225 30.8425L70.2637 30.8341H70.2049C68.6296 30.6268 67.3717 30.1246 66.4161 29.3948C64.4948 28.0837 63.2587 26.0529 63.2587 23.7711C63.2587 21.2128 64.8105 18.968 67.1399 17.7041C67.6868 17.3334 68.3016 17.0756 68.9487 16.9457C69.7829 16.7113 70.6452 16.5927 71.5115 16.5935C73.3575 16.5797 75.1636 17.1324 76.6876 18.1776C77.959 17.5457 79.9794 16.3356 80.0365 15.6851C79.9441 14.2863 77.4232 13.6392 75.8496 13.6392C74.3481 13.6392 71.8709 14.1245 68.47 15.4155" fill="url(#paint3_linear_2_15)"/>
<defs>
<linearGradient id="paint0_linear_2_15" x1="6.88866" y1="45.1671" x2="25.7246" y2="35.7817" gradientUnits="userSpaceOnUse">
<stop stop-color="#2E479A"/>
<stop offset="1" stop-color="#009BE0"/>
</linearGradient>
<linearGradient id="paint1_linear_2_15" x1="28.6376" y1="21.4047" x2="49.4023" y2="12.273" gradientUnits="userSpaceOnUse">
<stop stop-color="#269041"/>
<stop offset="1" stop-color="#C8DA3C"/>
</linearGradient>
<linearGradient id="paint2_linear_2_15" x1="4.11756" y1="16.0118" x2="28.6377" y2="16.0118" gradientUnits="userSpaceOnUse">
<stop stop-color="#A01127"/>
<stop offset="1" stop-color="#DDA819"/>
</linearGradient>
<linearGradient id="paint3_linear_2_15" x1="117.214" y1="13.6392" x2="117.216" y2="32.9688" gradientUnits="userSpaceOnUse">
<stop stop-color="#DABE46"/>
<stop offset="1" stop-color="#4D3727"/>
</linearGradient>
</defs>
</svg>
