<svg width="134" height="56" viewBox="0 0 134 56" fill="none" xmlns="http://www.w3.org/2000/svg">
<g clip-path="url(#clip0_2_219)">
<path fill-rule="evenodd" clip-rule="evenodd" d="M34.5979 31.4958V38.4917C34.5979 43.1322 32.7754 47.5826 29.5312 50.8639C26.287 54.1452 21.8869 55.9886 17.299 55.9886C12.711 55.9886 8.31093 54.1452 5.06675 50.8639C1.82256 47.5826 0 43.1322 0 38.4917V13.9953H34.5979V20.9948H6.92029V38.4917C6.92029 41.2739 8.01302 43.9421 9.95806 45.9094C11.9031 47.8767 14.5411 48.9819 17.2918 48.9819C20.0425 48.9819 22.6805 47.8767 24.6256 45.9094C26.5706 43.9421 27.6633 41.2739 27.6633 38.4917H17.2918V31.4958H34.5979ZM17.299 1.75071L13.837 3.49785L17.299 5.24864L20.7573 3.49785L17.299 1.75071ZM33.8147 2.53566L31.7476 9.21684C22.3365 6.25513 12.2579 6.25513 2.84681 9.21684L0.783229 2.53566C11.54 -0.84522 23.0579 -0.84522 33.8147 2.53566Z" fill="black"/>
<path fill-rule="evenodd" clip-rule="evenodd" d="M49.0037 41.0456V45.4805C49.0037 46.1135 48.1239 46.468 47.3263 46.468C45.8958 46.468 44.5761 44.9668 44.5761 42.8C44.5761 40.9082 45.4165 39.823 46.8185 39.823C47.2508 39.8449 47.6724 39.9664 48.0511 40.1783C48.4298 40.3902 48.7556 40.6869 49.0037 41.0456ZM49.0609 46.4716V47.4193C49.0609 47.7811 49.1395 47.8534 49.3112 47.8534C49.9322 47.6041 50.5721 47.4057 51.2246 47.2602C51.9649 47.101 52.276 47.2602 52.276 46.8442C52.276 46.5114 51.8683 46.6307 51.5608 46.4824C51.0708 46.2473 51.0529 45.8892 51.0529 45.1802V34.8347C51.0554 34.2996 51.0948 33.7654 51.1709 33.2359C51.1709 33.1382 51.0529 33.0405 50.8955 33.0405C50.7382 33.0405 50.1803 33.4348 49.1074 33.8291C48.2097 34.1619 47.7805 34.0461 47.7805 34.4585C47.7805 34.8709 48.1918 34.7153 48.5816 34.8745C49.0501 35.0698 49.0501 35.3447 49.0501 36.1948V39.5264C48.5064 39.2142 47.8865 39.0637 47.262 39.0923C44.7263 39.0923 42.8916 41.1433 42.8916 44.218C42.8916 46.3667 44.1398 47.8353 46.1497 47.8353C47.287 47.8462 48.106 47.4121 49.0609 46.4861V46.4716Z" fill="black"/>
<path fill-rule="evenodd" clip-rule="evenodd" d="M55.6128 42.2683C55.0262 42.2683 54.8975 42.167 54.8975 41.8342C54.8975 40.6514 55.6378 39.6638 56.6678 39.6638C56.9206 39.6626 57.1711 39.7133 57.404 39.8129C57.6368 39.9126 57.8473 40.059 58.0225 40.2433C58.1978 40.4277 58.3342 40.6461 58.4234 40.8854C58.5127 41.1246 58.553 41.3798 58.5418 41.6353C58.5418 42.1272 58.4417 42.2683 56.9825 42.2683H55.6128ZM55.6915 42.8398H59.883C60.5446 42.8398 60.6412 42.8217 60.6412 42.3262C60.6412 40.8792 59.2106 39.0923 56.9182 39.0923C54.6257 39.0923 52.9412 41.0637 52.9412 43.7948C52.9412 46.2401 54.5792 47.8751 56.6285 47.8751C59.0068 47.8751 60.6805 46.3378 60.6805 45.806C60.6805 45.6251 60.6233 45.5275 60.4659 45.5275C60.0189 45.5275 59.3572 46.5548 57.873 46.5548C56.1206 46.5548 54.9297 44.88 54.9297 43.3607C54.9297 42.8796 55.0334 42.8398 55.6915 42.8398Z" fill="black"/>
<path fill-rule="evenodd" clip-rule="evenodd" d="M77.2678 44.9487V43.7477C77.2678 42.9375 77.3643 42.4636 77.7148 42.167C78.0653 41.8704 78.6697 41.9716 78.6697 41.5195C78.6697 41.2807 78.498 41.1831 78.1833 41.1831C77.933 41.1831 77.1319 41.3205 75.7299 41.3205C74.5783 41.3205 73.7021 41.1433 73.137 41.1433C72.8044 41.1433 72.6507 41.2626 72.6507 41.5376C72.6507 41.9897 73.0405 41.8523 73.6807 42.0114C74.5783 42.2285 74.9288 42.6625 74.9288 43.8201C74.9288 44.8655 74.7536 45.5962 74.5712 45.8711C74.1599 46.4245 73.0119 46.9563 71.685 46.9563C68.9777 46.9563 67.1037 44.3337 67.1037 40.1738C67.1037 36.5276 68.9777 34.3572 71.6064 34.3572C73.5161 34.3572 75.4867 35.6196 76.2056 37.0991C76.7742 38.2639 76.599 38.698 77.0067 38.698C77.2785 38.698 77.3393 38.5967 77.3393 38.2639C77.3393 38.0469 77.2606 37.4753 77.2606 36.5855C77.2606 35.522 77.3393 34.9287 77.3393 34.7551C77.3393 34.4585 77.2391 34.3174 77.0675 34.3174C76.7098 34.3174 76.8314 34.7913 76.3057 34.7913C75.6405 34.7913 74.1599 33.5505 71.567 33.5505C67.633 33.5505 64.5895 36.8821 64.5895 41.3784C64.5895 45.3574 67.143 47.9438 70.9233 47.9438C72.386 47.9438 74.2779 47.4519 76.3057 46.4246C76.9888 46.0628 77.2999 46.0303 77.2999 45.5781C77.2892 45.4623 77.2678 45.2453 77.2678 44.9487Z" fill="black"/>
<path fill-rule="evenodd" clip-rule="evenodd" d="M80.6046 45.3212V45.6504C80.6046 47.148 79.5924 46.8513 79.5924 47.365C79.5931 47.4102 79.6032 47.4548 79.622 47.4958C79.6409 47.5369 79.668 47.5734 79.7018 47.6031C79.7355 47.6328 79.7751 47.655 79.8179 47.6682C79.8606 47.6814 79.9057 47.6853 79.9501 47.6797C80.6138 47.5748 81.2847 47.5228 81.9564 47.5241C82.8148 47.5241 83.4585 47.6797 83.8877 47.6797C84.2203 47.6797 84.3741 47.5422 84.3741 47.3469C84.3741 46.8513 83.809 47.0901 83.2046 46.6777C82.7361 46.3594 82.6967 45.9542 82.6967 45.1584V43.2051C82.6967 41.8269 83.0115 41.1758 83.7303 41.1758C84.4492 41.1758 84.8998 42.0041 85.2896 42.0041C85.6794 42.0041 86.2445 40.8213 86.2445 40.4089C86.2445 39.8916 85.2896 39.1248 84.7067 39.1248C84.2381 39.1248 83.5372 39.718 82.6967 40.9009L82.7575 39.302V38.9656C82.7456 38.9149 82.7187 38.869 82.6804 38.8341C82.642 38.7992 82.5941 38.7769 82.5429 38.7703C82.3677 38.7703 81.8992 39.085 80.9229 39.4395C79.7748 39.8555 79.2885 39.6565 79.2885 40.1304C79.2885 40.6042 79.8714 40.3293 80.2433 40.5645C80.6153 40.7996 80.601 41.1758 80.601 41.845L80.6046 45.3212Z" fill="black"/>
<path fill-rule="evenodd" clip-rule="evenodd" d="M92.0418 46.6452C92.3994 47.3687 92.8393 47.7304 93.3829 47.7304C94.2234 47.7304 95.1211 47.0974 95.1211 46.7429C95.1147 46.6748 95.0824 46.6118 95.0311 46.5673C94.9797 46.5227 94.9132 46.5001 94.8457 46.5041C94.7312 46.5041 94.6132 46.5475 94.4881 46.5475C93.8264 46.5475 93.8264 46.3667 93.8264 45.3828V42.4636C93.8264 41.4182 93.8264 40.655 93.3579 40.1377C92.7535 39.4649 91.7772 39.1104 90.4718 39.1104C88.3259 39.1104 87.0206 40.257 87.0206 41.2807C87.0206 41.6425 87.0992 41.7944 87.4497 41.7944C88.8159 41.7944 88.8803 41.2409 88.8803 40.8467V40.6911C88.8803 40.04 89.077 39.7832 89.8387 39.7832C91.1835 39.7832 91.7879 40.5898 91.7879 42.2864C91.7879 42.4057 91.7664 42.5432 91.7664 42.6806C88.4547 43.292 86.8954 44.1276 86.8954 45.9543C86.8954 47.177 87.5356 47.8462 88.6299 47.8462C89.8639 47.8194 91.058 47.3991 92.0418 46.6452ZM91.7879 43.2739V45.2887C91.7879 46.099 91.6091 46.6525 90.1892 46.6525C89.3881 46.6525 88.9983 46.2907 88.9983 45.5094C89.009 44.2795 89.8781 43.6465 91.7879 43.2739Z" fill="black"/>
<path fill-rule="evenodd" clip-rule="evenodd" d="M96.8235 45.3213V45.6505C96.8235 47.148 95.8078 46.8514 95.8078 47.3651C95.8084 47.4103 95.8185 47.4549 95.8374 47.4959C95.8562 47.537 95.8834 47.5735 95.9171 47.6032C95.9509 47.6329 95.9904 47.6551 96.0332 47.6683C96.076 47.6814 96.121 47.6854 96.1654 47.6798C96.8304 47.5753 97.5024 47.5233 98.1753 47.5242C99.0337 47.5242 99.6738 47.6798 100.103 47.6798C100.436 47.6798 100.589 47.5423 100.589 47.347C100.589 46.8514 100.024 47.0902 99.4199 46.6778C98.955 46.3595 98.9157 45.9543 98.9157 45.1585V41.9825C98.9157 40.8612 99.5201 40.3077 100.704 40.3077C102.202 40.3077 102.614 41.3929 102.614 43.3643V45.6107C102.64 45.8038 102.625 46.0002 102.571 46.1872C102.516 46.3742 102.424 46.5476 102.299 46.6959C102.009 47.0106 101.584 47.0323 101.584 47.3651C101.584 47.4103 101.594 47.4549 101.613 47.4959C101.632 47.537 101.659 47.5735 101.693 47.6032C101.727 47.6329 101.766 47.6551 101.809 47.6683C101.852 47.6814 101.897 47.6854 101.941 47.6798C102.599 47.5782 103.264 47.5263 103.93 47.5242C104.767 47.5242 105.36 47.6798 105.686 47.6798C106.011 47.6798 106.111 47.564 106.111 47.318C106.111 46.884 105.607 47.0612 105.139 46.6886C104.749 46.3703 104.691 45.9652 104.691 45.1694V43.0605C104.691 40.3584 103.776 39.0163 101.884 39.0163C100.868 39.0163 99.9528 39.4902 98.9407 40.4632L98.9979 39.3202V38.9838C98.9891 38.9315 98.9632 38.8838 98.9242 38.8483C98.8853 38.8129 98.8356 38.7918 98.7833 38.7885C98.6081 38.7885 98.1396 39.1031 97.1668 39.4576C96.0152 39.8736 95.5288 39.6747 95.5288 40.1485C95.5288 40.6224 96.1118 40.3475 96.4837 40.5826C96.8557 40.8177 96.8414 41.194 96.8414 41.8632L96.8235 45.3213Z" fill="black"/>
<path fill-rule="evenodd" clip-rule="evenodd" d="M111.898 46.6452C112.256 47.3687 112.695 47.7304 113.243 47.7304C114.08 47.7304 114.977 47.0974 114.977 46.7429C114.971 46.6748 114.939 46.6118 114.887 46.5673C114.836 46.5227 114.769 46.5001 114.702 46.5041C114.587 46.5041 114.469 46.5475 114.344 46.5475C113.683 46.5475 113.679 46.3667 113.679 45.3828V42.4636C113.679 41.4182 113.679 40.655 113.21 40.1377C112.606 39.4649 111.63 39.1104 110.324 39.1104C108.178 39.1104 106.873 40.257 106.873 41.2807C106.873 41.6425 106.952 41.7944 107.302 41.7944C108.668 41.7944 108.733 41.2409 108.733 40.8467V40.6911C108.733 40.04 108.926 39.7832 109.688 39.7832C111.032 39.7832 111.637 40.5898 111.637 42.2864C111.637 42.4057 111.615 42.5432 111.615 42.6806C108.304 43.292 106.744 44.1276 106.744 45.9543C106.744 47.177 107.388 47.8462 108.479 47.8462C109.713 47.8194 110.907 47.3991 111.891 46.6452H111.898ZM111.644 43.2739V45.2887C111.644 46.099 111.469 46.6525 110.045 46.6525C109.244 46.6525 108.854 46.2907 108.854 45.5094C108.847 44.2795 109.724 43.6465 111.633 43.2739H111.644Z" fill="black"/>
<path fill-rule="evenodd" clip-rule="evenodd" d="M121.833 41.0456V45.4805C121.833 46.1135 120.957 46.468 120.156 46.468C118.725 46.468 117.409 44.9668 117.409 42.8C117.409 40.9082 118.246 39.823 119.651 39.823C120.083 39.8454 120.504 39.9672 120.882 40.1791C121.26 40.391 121.585 40.6873 121.833 41.0456ZM121.89 46.4716V47.4193C121.89 47.7811 121.969 47.8534 122.144 47.8534C122.764 47.6037 123.403 47.4053 124.054 47.2602C124.798 47.101 125.106 47.2602 125.106 46.8442C125.106 46.5114 124.698 46.6307 124.39 46.4824C123.904 46.2473 123.886 45.8892 123.886 45.1802V34.8347C123.888 34.2997 123.927 33.7656 124 33.2359C124 33.1382 123.886 33.0405 123.729 33.0405C123.571 33.0405 123.013 33.4348 121.94 33.8291C121.046 34.1619 120.617 34.0461 120.617 34.4585C120.617 34.8709 121.025 34.7153 121.415 34.8745C121.883 35.0698 121.883 35.3447 121.883 36.1948V39.5264C121.34 39.2138 120.72 39.0633 120.095 39.0923C117.563 39.0923 115.728 41.1433 115.728 44.218C115.728 46.3667 116.976 47.8353 118.983 47.8353C120.124 47.8462 120.935 47.4121 121.89 46.4861V46.4716Z" fill="black"/>
<path fill-rule="evenodd" clip-rule="evenodd" d="M130.917 46.6452C131.275 47.3687 131.718 47.7304 132.265 47.7304C133.106 47.7304 134 47.0974 134 46.7429C133.994 46.6754 133.962 46.613 133.911 46.5686C133.861 46.5241 133.795 46.501 133.728 46.5041C133.61 46.5041 133.492 46.5475 133.371 46.5475C132.709 46.5475 132.709 46.3667 132.709 45.3828V42.4636C132.709 41.4182 132.709 40.655 132.24 40.1377C131.636 39.4649 130.663 39.1104 129.354 39.1104C127.208 39.1104 125.903 40.257 125.903 41.2807C125.903 41.6425 125.982 41.7944 126.336 41.7944C127.698 41.7944 127.766 41.2409 127.766 40.8467V40.6911C127.766 40.04 127.96 39.7832 128.721 39.7832C130.066 39.7832 130.67 40.5898 130.67 42.2864C130.67 42.4057 130.67 42.5432 130.67 42.6806C127.355 43.292 125.796 44.1276 125.796 45.9543C125.796 47.177 126.44 47.8462 127.527 47.8462C128.761 47.8211 129.956 47.4006 130.939 46.6452H130.917ZM130.667 43.2739V45.2887C130.667 46.099 130.492 46.6525 129.068 46.6525C128.267 46.6525 127.877 46.2907 127.877 45.5094C127.877 44.2795 128.757 43.6465 130.667 43.2739Z" fill="black"/>
<path fill-rule="evenodd" clip-rule="evenodd" d="M46.8077 24.3662V16.8531C46.8077 15.4532 47.0223 15.0191 48.6781 15.0191C51.9899 15.0191 54.1965 17.6417 54.1965 21.2879C54.1965 24.9342 52.0685 27.1841 49.0107 27.1841C47.0008 27.1841 46.8077 26.2762 46.8077 24.3662ZM44.4473 17.2474V25.3718C44.4473 26.2364 44.2542 26.7681 43.6891 27.0864C43.2385 27.3397 42.7914 27.4011 42.7914 27.8099C42.7996 27.919 42.8485 28.0208 42.9282 28.0947C43.0079 28.1686 43.1124 28.2091 43.2206 28.2078C44.2303 28.0321 45.254 27.9522 46.2784 27.9691C47.1761 27.9691 48.0165 28.0884 48.814 28.0884C53.4633 28.0884 56.6499 24.7171 56.6499 20.4595C56.6499 16.4805 53.9605 14.1075 48.8927 14.1075C47.7805 14.1075 46.4357 14.3065 44.8371 14.3065C43.825 14.3065 43.1598 14.1871 42.8308 14.1871C42.5017 14.1871 42.2657 14.3463 42.2657 14.5995C42.2657 15.1349 42.981 14.878 43.6104 15.2325C44.3436 15.6521 44.4401 16.1839 44.4401 17.2474H44.4473Z" fill="black"/>
<path fill-rule="evenodd" clip-rule="evenodd" d="M58.456 16.2201C58.456 16.5818 59.3501 17.667 59.7614 17.667C60.0332 17.667 61.0668 16.5999 61.0668 16.1477C61.0668 15.6955 60.0725 14.5308 59.8007 14.5308C59.5289 14.5308 58.456 15.7534 58.456 16.2056V16.2201ZM58.7672 25.7263V26.0627C58.7672 27.5603 57.755 27.2637 57.755 27.7774C57.7557 27.8226 57.7658 27.8672 57.7846 27.9082C57.8035 27.9492 57.8306 27.9858 57.8644 28.0155C57.8981 28.0452 57.9377 28.0673 57.9805 28.0805C58.0232 28.0937 58.0683 28.0977 58.1127 28.0921C58.7774 27.9854 59.4495 27.9322 60.1226 27.9329C60.9416 27.9329 61.5281 28.0921 61.8572 28.0921C62.129 28.0921 62.2863 27.9727 62.2863 27.7557C62.2863 27.2637 61.7821 27.4807 61.2921 27.0864C60.9023 26.7681 60.8629 26.363 60.8629 25.5672V21.0528C60.8629 20.1846 60.9022 19.7108 60.9022 19.6059C60.9022 19.3273 60.845 19.1899 60.6698 19.1899C60.5518 19.1899 60.1047 19.5263 59.0711 19.8808C57.9589 20.2751 57.451 20.058 57.451 20.55C57.451 21.0419 58.0376 20.7489 58.4059 20.984C58.7743 21.2192 58.7636 21.5954 58.7636 22.2646L58.7672 25.7263Z" fill="black"/>
<path fill-rule="evenodd" clip-rule="evenodd" d="M65.9271 26.2363V21.5338C66.1569 21.2881 66.4342 21.0929 66.7419 20.9603C67.0495 20.8278 67.3809 20.7607 67.7153 20.7633C69.1959 20.7633 70.3475 22.2826 70.3475 24.5506C70.3475 26.4244 69.5285 27.4445 68.1623 27.4445C67.7222 27.4416 67.2891 27.3324 66.899 27.126C66.509 26.9196 66.1733 26.6221 65.9199 26.258L65.9271 26.2363ZM63.8242 29.8536V30.0489C63.8242 30.5445 63.8027 30.8773 63.5488 31.1161C63.2949 31.3548 62.9658 31.391 62.9658 31.7057C62.9634 31.7461 62.9692 31.7866 62.9828 31.8247C62.9965 31.8628 63.0177 31.8977 63.0451 31.9272C63.0726 31.9567 63.1058 31.9802 63.1426 31.9962C63.1794 32.0122 63.219 32.0205 63.2591 32.0204C63.7552 31.9455 64.256 31.9068 64.7576 31.9046C65.5066 31.9034 66.2551 31.942 67 32.0204C67.3326 32.0204 67.5078 31.8829 67.5078 31.6586C67.5078 31.1848 66.9607 31.3837 66.4349 31.0654C66.2571 30.9422 66.1148 30.7734 66.0225 30.5765C65.9301 30.3795 65.891 30.1613 65.9092 29.944V27.7737C66.4224 28.0868 67.0086 28.2566 67.608 28.2656C69.9469 28.2656 71.9926 26.2544 71.9926 23.3388C71.9926 20.8755 70.7659 19.4539 68.8526 19.4539C67.7797 19.4539 66.8855 19.906 65.9092 20.814L65.9485 19.5913C65.9485 19.3345 65.8913 19.197 65.6946 19.197C65.4979 19.197 64.9793 19.5913 63.8456 19.9675C63.0445 20.2243 62.5975 20.1448 62.5975 20.5788C62.5975 21.0129 63.0266 20.7742 63.395 20.9731C63.7634 21.1721 63.8063 21.523 63.8063 22.2139L63.8242 29.8536Z" fill="black"/>
<path fill-rule="evenodd" clip-rule="evenodd" d="M79.8678 26.7319L79.8106 27.5386V27.7556C79.8106 27.9546 79.9465 28.092 80.2398 28.092C80.533 28.092 81.0588 27.7954 81.7597 27.7773C82.7933 27.7375 83.2797 27.7773 83.2797 27.3215C83.2797 26.8658 82.6968 27.1262 82.3248 26.8875C81.9529 26.6487 81.9672 26.2761 81.9672 25.6069V21.8811C81.9672 20.5391 82.0494 19.8482 82.0494 19.7324C82.0494 19.4756 81.9672 19.396 81.7955 19.396C80.9764 19.5376 80.1479 19.6174 79.3171 19.6348C79.1812 19.6348 79.0667 19.613 78.9594 19.613C78.7091 19.613 78.6018 19.7324 78.6018 19.9495C78.6018 20.4414 79.2634 20.3112 79.5174 20.4812C79.875 20.7163 79.875 21.1504 79.875 21.8196V25.1909C79.875 26.3159 79.2742 26.8875 78.0868 26.8875C76.5668 26.8875 76.177 25.8023 76.177 23.8308V21.8811C76.177 20.6584 76.2736 19.9277 76.2736 19.7324C76.2736 19.4756 76.177 19.396 76.0018 19.396C75.1838 19.538 74.3566 19.6178 73.5269 19.6348C73.391 19.6348 73.2944 19.613 73.1978 19.613C72.9403 19.613 72.8402 19.7324 72.8402 19.9495C72.8402 20.4414 73.484 20.3112 73.7343 20.4812C74.1277 20.738 74.1277 21.2481 74.1277 22.0402V24.1274C74.1277 26.8296 75.0433 28.1716 76.9316 28.1716C77.9401 28.1716 78.8557 27.6977 79.8678 26.7319Z" fill="black"/>
<path fill-rule="evenodd" clip-rule="evenodd" d="M85.1108 25.5852C85.1108 27.4228 85.4005 28.2873 87.0957 28.2873C88.5799 28.2873 89.7673 27.401 89.7673 26.9887C89.7673 26.8512 89.6528 26.7536 89.4776 26.7536C89.2237 26.7536 88.8517 27.1153 88.1329 27.1153C87.2924 27.1153 87.178 26.5438 87.178 25.4224V20.955C87.178 20.6982 87.2352 20.5933 87.5356 20.5933H88.63C89.3453 20.5933 89.6207 20.1375 89.6207 19.5081C89.6207 19.3706 89.5455 19.2911 89.449 19.2911C89.3524 19.2911 89.0592 19.6853 88.5728 19.6853H87.5571C87.2245 19.6853 87.1994 19.6275 87.1994 19.3236V17.4715C87.1994 17.2364 87.1172 17.1351 86.9813 17.1351C86.6701 17.1351 86.5164 17.6488 85.7546 18.5169C84.6638 19.7577 84.02 20.1122 84.02 20.369C84.02 20.6258 84.1774 20.6078 84.4099 20.6078H84.8211C85.0536 20.6078 85.1323 20.7633 85.1323 21.0418L85.1108 25.5852Z" fill="black"/>
<path fill-rule="evenodd" clip-rule="evenodd" d="M95.5968 27.0466C95.9544 27.7701 96.3979 28.1318 96.9415 28.1318C97.7783 28.1318 98.6796 27.4988 98.6796 27.1443C98.6724 27.0768 98.6397 27.0148 98.5885 26.971C98.5372 26.9272 98.4712 26.9051 98.4042 26.9092C98.2898 26.9092 98.1682 26.949 98.0466 26.949C97.385 26.949 97.3849 26.7681 97.3849 25.7842V22.8614C97.3849 21.8124 97.3849 21.0528 96.9129 20.5319C96.312 19.8627 95.3357 19.5082 94.0303 19.5082C91.8845 19.5082 90.5791 20.6512 90.5791 21.6786C90.5791 22.0403 90.6578 22.1922 91.0083 22.1922C92.3745 22.1922 92.4388 21.6424 92.4388 21.2445V21.0889C92.4388 20.4378 92.6355 20.181 93.3973 20.181C94.7384 20.181 95.3464 20.9913 95.3464 22.6878C95.3464 22.8036 95.3249 22.941 95.3249 23.0785C92.0096 23.6898 90.4539 24.5254 90.4539 26.3557C90.4539 27.5748 91.0941 28.244 92.1849 28.244C93.419 28.2177 94.6132 27.7973 95.5968 27.043V27.0466ZM95.3464 23.6753V25.6865C95.3464 26.4932 95.1676 27.0466 93.7478 27.0466C92.9467 27.0466 92.5568 26.6849 92.5568 25.9036C92.5568 24.6701 93.433 24.0515 95.3464 23.6753Z" fill="black"/>
<path fill-rule="evenodd" clip-rule="evenodd" d="M99.3806 24.2865C99.3806 26.6704 100.861 28.2873 103.143 28.2873C105.618 28.2873 107.177 26.6306 107.177 26.2182C107.177 26.0192 107.12 25.9433 106.945 25.9433C106.555 25.9433 105.718 26.967 104.234 26.967C102.539 26.967 101.312 25.3898 101.312 22.8288C101.312 21.1503 101.991 20.2966 103.222 20.2966C103.572 20.2731 103.92 20.3694 104.21 20.5702C104.5 20.7709 104.715 21.0644 104.82 21.4035C104.978 21.8159 104.956 22.1921 105.249 22.1921C105.543 22.1921 106.651 21.4687 106.651 20.9478C106.651 20.4269 105.679 19.5009 104.019 19.5009C102.779 19.5199 101.596 20.0332 100.727 20.9292C99.8587 21.8253 99.3748 23.0317 99.3806 24.2865Z" fill="black"/>
<path fill-rule="evenodd" clip-rule="evenodd" d="M108.99 16.2201C108.99 16.5818 109.888 17.667 110.296 17.667C110.571 17.667 111.605 16.5999 111.605 16.1477C111.605 15.6955 110.61 14.5416 110.335 14.5416C110.06 14.5416 108.99 15.7643 108.99 16.2164V16.2201ZM109.301 25.7263V26.0627C109.301 27.5603 108.289 27.2637 108.289 27.7774C108.29 27.8226 108.3 27.8672 108.319 27.9082C108.338 27.9492 108.365 27.9858 108.399 28.0155C108.432 28.0452 108.472 28.0673 108.515 28.0805C108.558 28.0937 108.603 28.0977 108.647 28.0921C109.312 27.9852 109.984 27.9319 110.657 27.9329C111.476 27.9329 112.059 28.0921 112.391 28.0921C112.663 28.0921 112.821 27.9727 112.821 27.7557C112.821 27.2637 112.313 27.4807 111.826 27.0864C111.437 26.7681 111.397 26.363 111.397 25.5672V21.0528C111.397 20.1846 111.437 19.7108 111.437 19.6059C111.437 19.3273 111.376 19.1899 111.201 19.1899C111.083 19.1899 110.635 19.5263 109.602 19.8808C108.493 20.2751 107.985 20.058 107.985 20.55C107.985 21.0419 108.568 20.7489 108.94 20.984C109.312 21.2192 109.298 21.5954 109.298 22.2646L109.301 25.7263Z" fill="black"/>
<path fill-rule="evenodd" clip-rule="evenodd" d="M115.549 22.8867C115.549 21.0781 116.408 20.105 117.831 20.105C119.43 20.105 120.635 22.0981 120.635 24.916C120.635 26.6704 119.741 27.6182 118.414 27.6182C116.719 27.6182 115.553 25.5852 115.553 22.8867H115.549ZM113.561 23.9719C113.561 26.457 115.374 28.291 117.928 28.291C120.617 28.291 122.606 26.3412 122.606 23.7151C122.606 21.0889 120.817 19.3743 118.064 19.3743C117.469 19.3743 116.88 19.4934 116.331 19.7248C115.783 19.9561 115.284 20.2951 114.866 20.7222C114.447 21.1494 114.116 21.6561 113.892 22.2133C113.668 22.7704 113.556 23.3669 113.561 23.9683V23.9719ZM116.422 18.5098H117.137L119.998 16.7373C120.546 16.4009 120.796 16.1658 120.796 15.7715C120.799 15.6744 120.783 15.5776 120.749 15.4868C120.714 15.3961 120.662 15.3134 120.596 15.2435C120.529 15.1736 120.449 15.118 120.36 15.0801C120.272 15.0422 120.177 15.0226 120.081 15.0227C119.877 15.0475 119.681 15.1138 119.504 15.2177C119.327 15.3215 119.173 15.4607 119.051 15.6268L116.422 18.5098Z" fill="black"/>
<path fill-rule="evenodd" clip-rule="evenodd" d="M124.691 25.7263V26.0627C124.691 27.5603 123.675 27.2637 123.675 27.7773C123.676 27.8224 123.687 27.8667 123.706 27.9074C123.725 27.9482 123.752 27.9845 123.785 28.0141C123.819 28.0437 123.858 28.0659 123.901 28.0793C123.943 28.0927 123.988 28.0971 124.033 28.092C124.696 27.9848 125.367 27.9315 126.039 27.9329C126.897 27.9329 127.541 28.092 127.97 28.092C128.299 28.092 128.457 27.9546 128.457 27.7556C128.457 27.2637 127.891 27.4988 127.287 27.0864C126.819 26.7681 126.779 26.3629 126.779 25.5671V22.3948C126.779 21.2698 127.384 20.7163 128.567 20.7163C130.069 20.7163 130.477 21.8015 130.477 23.773V25.7263C130.477 25.824 130.477 25.9216 130.477 26.0193C130.504 26.2119 130.49 26.408 130.437 26.5949C130.384 26.7819 130.293 26.9555 130.17 27.1045C129.876 27.4228 129.454 27.4409 129.454 27.7773C129.455 27.8226 129.465 27.8671 129.484 27.9082C129.503 27.9492 129.53 27.9857 129.564 28.0154C129.597 28.0451 129.637 28.0673 129.68 28.0805C129.723 28.0937 129.768 28.0976 129.812 28.092C130.471 27.9885 131.137 27.9353 131.804 27.9329C132.641 27.9329 133.235 28.092 133.557 28.092C133.878 28.092 133.986 27.9727 133.986 27.7303C133.986 27.2962 133.478 27.4735 133.009 27.1009C132.623 26.7825 132.562 26.3774 132.562 25.5816V23.4727C132.562 20.7706 131.647 19.4322 129.755 19.4322C128.743 19.4322 127.827 19.9024 126.811 20.8791L126.872 19.7324V19.3996C126.864 19.3467 126.839 19.2981 126.8 19.262C126.761 19.2258 126.71 19.2042 126.658 19.2007C126.482 19.2007 126.014 19.5154 125.038 19.8699C123.89 20.2859 123.403 20.0869 123.403 20.5608C123.403 21.0347 123.99 20.7598 124.358 20.9949C124.726 21.23 124.716 21.6062 124.716 22.2754L124.691 25.7263Z" fill="black"/>
</g>
<defs>
<clipPath id="clip0_2_219">
<rect width="134" height="56" fill="white"/>
</clipPath>
</defs>
</svg>
