<svg width="56" height="56" viewBox="0 0 56 56" fill="none" xmlns="http://www.w3.org/2000/svg">
<path fill-rule="evenodd" clip-rule="evenodd" d="M33.2655 19.9553C32.2864 18.3448 30.6215 17.109 28.3025 16.2554C28.1503 16.1994 27.9981 16.1473 27.8421 16.0952C27.6862 16.043 27.5471 15.9986 27.3968 15.9542C26.1665 15.5878 24.9097 15.323 23.6384 15.1625C20.0303 14.6855 17.437 13.187 15.9337 10.7076C13.5997 6.87642 14.5393 1.86924 15.0148 0C11.1286 0.965517 8.64993 2.59917 7.45289 4.98207C6.11678 7.6411 6.4212 11.3294 8.35865 15.9426C9.8 19.376 9.86201 22.4348 8.56537 25.0339C6.54711 29.0582 1.86603 30.7807 0.0657654 31.3117C1.28536 32.5959 4.69423 35.7724 8.53342 35.7724H8.78335C10.9068 35.6952 12.865 34.6254 14.6183 32.5959C13.8271 29.4328 13.9568 26.7719 15.0185 24.6593C16.4129 21.8863 19.3087 20.0538 23.8695 19.0593L24.6062 18.8971L24.3675 19.6309C23.8635 21.3499 23.6102 23.1362 23.6158 24.9316C24.0299 24.8352 24.451 24.7745 24.8749 24.7501C26.6301 24.6516 28.374 25.1575 30.1366 26.2794C30.2851 26.3741 30.4317 26.4726 30.5783 26.5749C30.6142 26.6 30.6497 26.6243 30.685 26.6485L30.6851 26.6486C30.794 26.7232 30.9008 26.7964 31.0086 26.8839C31.9264 27.5789 32.784 28.3542 33.5718 29.2011C34.7482 25.2676 34.6448 22.2494 33.2599 19.963L33.2655 19.9553ZM34.1675 30.1801C35.6615 25.6306 35.6051 22.1297 33.9927 19.4783L34.004 19.4764C32.8652 17.6033 30.9203 16.1994 28.2067 15.2745C28.077 13.4979 28.3364 11.9531 28.9884 10.6535C30.1855 8.27255 32.6623 6.6389 36.5485 5.67338C36.073 7.54262 35.1334 12.5498 37.4674 16.381C38.9707 18.8604 41.5659 20.3589 45.1721 20.8359C50.0148 21.477 53.2526 23.0894 54.7954 25.6287C56.1804 27.915 56.2838 30.9332 55.1074 34.8668C52.1345 31.7172 49.2669 30.2632 46.4086 30.4254C43.5503 30.5876 40.709 32.451 37.9522 35.9269C36.3361 35.1892 34.3792 34.6691 32.0816 34.3666C30.7498 34.2111 29.4514 33.8349 28.2368 33.2524C28.9867 32.5171 29.6145 31.6606 30.0953 30.717C30.5328 29.8436 30.8195 28.8988 30.9428 27.9247C31.8431 28.6582 32.6828 29.4668 33.4534 30.3423L33.9326 30.8714L34.1675 30.1801ZM38.1965 37.0237C39.7149 37.8097 40.8518 38.8138 41.5941 40.0342L41.5978 40.0381C42.9828 42.3263 43.0862 45.3426 41.9098 49.2781C38.935 46.1189 36.0824 44.6648 33.2072 44.8251C30.0352 45.0066 26.8762 47.2659 23.8338 51.5393C21.8625 54.3065 19.5981 55.7625 17.1063 55.8513C13.1732 55.9903 9.63651 52.7076 8.38872 51.3964C10.1909 50.8654 14.8719 49.141 16.8883 45.1186C18.1868 42.5175 18.1248 39.4588 16.6835 36.0273C16.2391 34.9856 15.8625 33.9147 15.556 32.8218C15.5071 32.6441 15.4658 32.48 15.4207 32.2946C15.3756 32.1092 15.3323 31.9239 15.2929 31.7423C14.7235 29.0794 14.8795 26.8414 15.774 25.0648C16.971 22.6839 19.4478 21.0502 23.334 20.0847C22.9106 21.7487 22.7133 23.4649 22.7476 25.1845C22.7514 25.3352 22.7589 25.4877 22.7683 25.6403C22.7783 25.7935 22.7896 25.946 22.8021 26.0979C22.9212 27.7582 23.4188 29.3663 24.2548 30.7923C24.8917 31.8358 25.7404 32.7257 26.7428 33.4011C26.8706 33.488 26.9984 33.5691 27.1337 33.6521C27.269 33.7352 27.4043 33.8124 27.5434 33.8877C28.9277 34.6073 30.4268 35.0651 31.9689 35.2394C34.0873 35.5214 35.8983 35.9874 37.4016 36.6375C37.4378 36.6551 37.4733 36.6726 37.5085 36.6898C37.6084 36.7389 37.705 36.7863 37.8038 36.8306C37.9372 36.8905 38.0687 36.9561 38.1965 37.0237Z" fill="black"/>
</svg>
